<svg width="12" height="12" viewBox="0 0 12 12" fill="none" xmlns="http://www.w3.org/2000/svg">
<g clip-path="url(#clip0_98_28590)">
<path fill-rule="evenodd" clip-rule="evenodd" d="M4.65895 0.599189C4.82775 0.410665 5.0344 0.259858 5.26543 0.156611C5.49645 0.0533649 5.74665 0 5.9997 0C6.25275 0 6.50295 0.0533649 6.73397 0.156611C6.965 0.259858 7.17165 0.410665 7.34045 0.599189L7.76037 1.06831C7.82038 1.13545 7.89474 1.18821 7.97792 1.22269C8.0611 1.25717 8.15098 1.27248 8.24088 1.26748L8.87076 1.23269C9.12335 1.21882 9.37602 1.25835 9.61229 1.34871C9.84857 1.43907 10.0631 1.57823 10.242 1.7571C10.4209 1.93598 10.56 2.15056 10.6504 2.38684C10.7408 2.62312 10.7803 2.8758 10.7664 3.12839L10.7316 3.75829C10.7267 3.8481 10.7421 3.93786 10.7765 4.02093C10.811 4.10401 10.8637 4.17826 10.9308 4.23821L11.4005 4.65814C11.5891 4.82695 11.74 5.03365 11.8433 5.26474C11.9466 5.49582 12 5.7461 12 5.99923C12 6.25236 11.9466 6.50264 11.8433 6.73373C11.74 6.96482 11.5891 7.17151 11.4005 7.34032L10.9308 7.76025C10.8636 7.82027 10.8109 7.89462 10.7764 7.97781C10.7419 8.06099 10.7266 8.15087 10.7316 8.24078L10.7664 8.87068C10.7803 9.12327 10.7408 9.37594 10.6504 9.61222C10.56 9.84851 10.4209 10.0631 10.242 10.242C10.0631 10.4208 9.84857 10.56 9.61229 10.6504C9.37602 10.7407 9.12335 10.7802 8.87076 10.7664L8.24088 10.7316C8.15108 10.7267 8.06132 10.742 7.97824 10.7765C7.89517 10.811 7.82092 10.8637 7.76097 10.9307L7.34105 11.4005C7.17225 11.5891 6.96556 11.74 6.73448 11.8433C6.50339 11.9466 6.25312 12 6 12C5.74688 12 5.4966 11.9466 5.26552 11.8433C5.03444 11.74 4.82775 11.5891 4.65895 11.4005L4.23903 10.9307C4.17902 10.8636 4.10466 10.8109 4.02148 10.7764C3.9383 10.7419 3.84842 10.7266 3.75852 10.7316L3.12864 10.7664C2.87605 10.7802 2.62338 10.7407 2.38711 10.6504C2.15083 10.56 1.93626 10.4208 1.75739 10.242C1.57852 10.0631 1.43937 9.84851 1.34901 9.61222C1.25865 9.37594 1.21912 9.12327 1.23299 8.87068L1.26778 8.24078C1.27268 8.15097 1.25733 8.06121 1.22286 7.97813C1.18838 7.89506 1.13567 7.8208 1.06862 7.76085L0.599507 7.34092C0.41089 7.17211 0.260002 6.96542 0.156699 6.73433C0.0533953 6.50324 0 6.25296 0 5.99983C0 5.7467 0.0533953 5.49642 0.156699 5.26534C0.260002 5.03425 0.41089 4.82755 0.599507 4.65875L1.06862 4.23881C1.13575 4.1788 1.18851 4.10444 1.22299 4.02126C1.25747 3.93808 1.27278 3.8482 1.26778 3.75829L1.23299 3.12839C1.21912 2.8758 1.25865 2.62312 1.34901 2.38684C1.43937 2.15056 1.57852 1.93598 1.75739 1.7571C1.93626 1.57823 2.15083 1.43907 2.38711 1.34871C2.62338 1.25835 2.87605 1.21882 3.12864 1.23269L3.75852 1.26748C3.84832 1.27239 3.93808 1.25703 4.02115 1.22256C4.10423 1.18808 4.17848 1.13537 4.23843 1.06831L4.65895 0.599189ZM8.22348 3.77569C8.33595 3.88818 8.39912 4.04074 8.39912 4.19982C8.39912 4.35889 8.33595 4.51145 8.22348 4.62395L4.62416 8.22338C4.51102 8.33266 4.35948 8.39312 4.20219 8.39176C4.04491 8.39039 3.89445 8.3273 3.78322 8.21607C3.672 8.10485 3.60891 7.95438 3.60754 7.79709C3.60617 7.63979 3.66664 7.48826 3.77591 7.37511L7.37524 3.77569C7.48774 3.66322 7.6403 3.60004 7.79936 3.60004C7.95843 3.60004 8.11099 3.66322 8.22348 3.77569ZM4.49998 3.59991C4.26133 3.59991 4.03245 3.69472 3.8637 3.86348C3.69495 4.03223 3.60015 4.26111 3.60015 4.49977V4.50577C3.60015 4.74443 3.69495 4.97331 3.8637 5.14206C4.03245 5.31082 4.26133 5.40563 4.49998 5.40563H4.50598C4.74463 5.40563 4.9735 5.31082 5.14226 5.14206C5.31101 4.97331 5.40581 4.74443 5.40581 4.50577V4.49977C5.40581 4.26111 5.31101 4.03223 5.14226 3.86348C4.9735 3.69472 4.74463 3.59991 4.50598 3.59991H4.49998ZM7.49942 6.59944C7.26077 6.59944 7.03189 6.69424 6.86314 6.863C6.69439 7.03175 6.59959 7.26064 6.59959 7.49929V7.50529C6.59959 7.74395 6.69439 7.97283 6.86314 8.14159C7.03189 8.31034 7.26077 8.40515 7.49942 8.40515H7.50542C7.74407 8.40515 7.97295 8.31034 8.1417 8.14159C8.31045 7.97283 8.40525 7.74395 8.40525 7.50529V7.49929C8.40525 7.26064 8.31045 7.03175 8.1417 6.863C7.97295 6.69424 7.74407 6.59944 7.50542 6.59944H7.49942Z" fill="white"/>
</g>
<defs>
<clipPath id="clip0_98_28590">
<rect width="12" height="12" fill="white"/>
</clipPath>
</defs>
</svg>
