<svg width="234" height="230" viewBox="0 0 234 230" fill="none" xmlns="http://www.w3.org/2000/svg">
<path fill-rule="evenodd" clip-rule="evenodd" d="M0.886719 116.186V114.28C0.886719 51.559 52.4404 0.714844 116.034 0.714844H117.968C181.562 0.714844 233.115 51.559 233.115 114.28V116.186C233.115 178.906 181.563 229.751 117.968 229.751H116.034C52.4404 229.751 0.886719 178.906 0.886719 116.186Z" fill="#E4EBF7"/>
<path d="M175.654 61.8699L168.703 114.579L160.046 180.233C159.995 180.599 159.935 180.955 159.842 181.303C159.706 181.88 159.52 182.432 159.282 182.958C158.798 184.071 158.119 185.064 157.296 185.904C155.166 188.094 152.059 189.291 148.791 188.858L121.258 185.225L104.572 183.026L103.443 182.874L55.3024 176.524C55.2599 176.515 55.226 176.515 55.1836 176.507C49.7686 175.726 45.9747 170.726 46.6876 165.276L54.3603 107.066L62.2875 46.9206C62.4403 45.7746 62.7798 44.6965 63.2721 43.7202C65.1393 40.019 69.1963 37.7184 73.5334 38.2872L113.62 43.5759L149.097 48.2534L154.996 49.0344L167.014 50.6219C172.514 51.3435 176.376 56.386 175.654 61.8699Z" fill="#D4D4D4"/>
<path d="M168.702 62.787V172.373C168.702 177.347 165.282 181.533 160.664 182.696C160.215 182.806 159.756 182.899 159.281 182.95C158.882 182.993 158.475 183.018 158.059 183.018H65.0026C60.5892 183.018 56.8038 180.327 55.1911 176.507C54.6564 175.242 54.3594 173.841 54.3594 172.381V54.2215C54.3594 48.9328 58.2212 44.5439 63.2712 43.7205C63.8314 43.6271 64.4085 43.5762 64.9941 43.5762H149.563L155.003 49.0347L168.702 62.787Z" fill="white"/>
<path d="M71.0461 78.8404C69.8154 77.9745 68.7121 76.854 68.415 75.5721C68.1604 74.477 68.4659 73.314 69.0261 72.3293C76.2489 59.5702 97.4335 58.8995 106.583 69.6637C110.105 73.8064 111.514 79.2224 111.073 84.596C110.564 90.7676 107.169 95.6828 102.212 99.1888C97.8494 102.279 92.5957 104.571 89.3874 109.019C88.2671 110.581 87.7069 112.797 85.6615 113.4C82.8436 114.223 77.522 114.121 76.8345 110.471C75.5784 103.756 82.6145 98.4418 87.6475 95.6234C90.1937 94.1972 92.7994 92.805 94.9297 90.8185C97.5184 88.4076 99.0037 85.2242 98.7236 81.6588C98.3587 76.9558 93.5972 73.8488 89.1837 73.7385C85.8821 73.6621 82.623 75.0797 80.2295 77.3548C78.2265 79.2564 76.3677 81.472 73.3801 80.1392C72.6587 79.8336 71.8269 79.3837 71.0461 78.8404Z" fill="#E4E5E5"/>
<path d="M86.6988 138.094H77.8549C77.2098 138.094 76.6836 137.567 76.6836 136.922V124.757C76.6836 124.112 77.2098 123.586 77.8549 123.586H86.6988C87.3438 123.586 87.87 124.112 87.87 124.757V136.922C87.87 137.567 87.3438 138.094 86.6988 138.094Z" fill="#E4E5E5"/>
<path d="M68.9328 77.6002C67.7021 76.7343 66.5988 75.6137 66.3017 74.3319C66.0471 73.2368 66.3526 72.0738 66.9128 71.089C74.1356 58.3299 95.3202 57.6593 104.47 68.4235C107.992 72.5661 109.401 77.9822 108.96 83.3558C108.45 89.5274 105.055 94.4426 100.099 97.9486C95.7361 101.039 90.4824 103.331 87.2742 107.779C86.1538 109.341 85.5936 111.557 83.5482 112.159C80.7303 112.983 75.4087 112.881 74.7212 109.231C73.4651 102.516 80.5012 97.2015 85.5342 94.3831C88.0805 92.957 90.6861 91.5648 92.8165 89.5783C95.4051 87.1674 96.8904 83.984 96.6103 80.4186C96.2454 75.7156 91.4839 72.6086 87.0705 72.4982C83.7688 72.4218 80.5097 73.8395 78.1162 76.1146C76.1132 78.0161 74.2544 80.2318 71.2669 78.899C70.5454 78.5849 69.7137 78.1435 68.9328 77.6002Z" fill="#F8931D"/>
<path d="M84.5855 136.846H75.7416C75.0965 136.846 74.5703 136.319 74.5703 135.674V123.509C74.5703 122.864 75.0965 122.338 75.7416 122.338H84.5855C85.2305 122.338 85.7567 122.864 85.7567 123.509V135.674C85.7652 136.319 85.239 136.846 84.5855 136.846Z" fill="#F8931D"/>
<path d="M168.712 62.7961C168.712 62.7961 168.703 62.7961 168.712 62.7961C168.703 62.7961 168.703 62.7961 168.695 62.8046L167.031 61.1152L168.712 62.7961Z" fill="#4AA1F2"/>
<path d="M171.877 66.0299L171.589 98.263L168.703 98.5516V62.8125L171.877 66.0299Z" fill="#8BC2E1"/>
<path d="M159.28 182.949C158.797 184.061 158.118 185.055 157.294 185.895L121.257 185.216L104.57 183.017H158.058C158.474 183.017 158.881 183 159.28 182.949Z" fill="#8CC2E0"/>
<path d="M168.693 62.8033C168.668 62.8118 168.608 62.8203 168.524 62.8458C168.167 62.9222 167.327 63.0919 166.19 63.2108C163.363 63.5249 158.687 63.5843 154.978 61.3856C154.222 60.9357 153.509 60.4009 152.864 59.7472C147.288 54.1699 149.58 43.584 149.58 43.584L166.953 61.0291L167.03 61.1055L168.693 62.8033Z" fill="#7BB2F9"/>
<path d="M182.282 157.602C180.246 159.64 179.388 160.505 179.388 160.505L179.261 160.633C179.261 160.633 178.404 161.49 176.358 163.528C174.907 164.979 172.794 163.256 171.699 162.144C171.249 161.694 170.969 161.337 170.969 161.337L180.101 152.203C180.101 152.203 180.424 152.458 180.857 152.882C181.96 153.969 183.751 156.134 182.282 157.602Z" fill="#B9D0D5"/>
<path d="M180.242 154.945C177.976 157.212 177.026 158.162 177.026 158.162L176.881 158.307C176.881 158.307 175.931 159.266 173.665 161.524C173.053 162.135 172.366 162.271 171.687 162.144C171.237 161.694 170.957 161.337 170.957 161.337L180.09 152.203C180.09 152.203 180.412 152.458 180.845 152.882C180.998 153.587 180.887 154.308 180.242 154.945Z" fill="#9DAFB6"/>
<path d="M149.367 159.156C165.67 159.156 178.886 145.937 178.886 129.631C178.886 113.324 165.67 100.105 149.367 100.105C133.064 100.105 119.848 113.324 119.848 129.631C119.848 145.937 133.064 159.156 149.367 159.156Z" fill="#7BB2F9"/>
<path d="M165.994 113.409C165.994 131.117 151.642 145.464 133.945 145.464C125.56 145.464 117.921 142.238 112.209 136.966C111.742 134.589 111.496 132.144 111.496 129.64C111.496 108.723 128.454 91.7617 149.367 91.7617C152.533 91.7617 155.614 92.1522 158.559 92.8823C163.202 98.4426 165.994 105.599 165.994 113.409Z" fill="#8EBFFF"/>
<path fill-rule="evenodd" clip-rule="evenodd" d="M150.85 134.75L161.318 145.22C161.874 145.776 162.627 146.088 163.413 146.088C164.198 146.088 164.952 145.776 165.507 145.22C166.063 144.665 166.375 143.911 166.375 143.126C166.375 142.34 166.063 141.587 165.507 141.031L155.035 130.563L165.505 120.094C165.78 119.819 165.998 119.492 166.147 119.133C166.296 118.774 166.372 118.389 166.372 118C166.372 117.611 166.295 117.226 166.146 116.867C165.998 116.507 165.779 116.181 165.504 115.906C165.229 115.631 164.903 115.413 164.543 115.264C164.184 115.115 163.799 115.039 163.41 115.039C163.021 115.039 162.636 115.116 162.277 115.265C161.918 115.414 161.591 115.632 161.316 115.907L150.85 126.376L140.381 115.907C140.108 115.624 139.781 115.398 139.42 115.243C139.059 115.088 138.67 115.006 138.277 115.002C137.884 114.998 137.494 115.073 137.13 115.222C136.766 115.371 136.436 115.59 136.157 115.868C135.879 116.146 135.659 116.477 135.51 116.841C135.361 117.204 135.286 117.594 135.289 117.987C135.292 118.381 135.374 118.769 135.529 119.131C135.684 119.492 135.909 119.819 136.192 120.092L146.665 130.563L136.194 141.031C135.639 141.587 135.326 142.34 135.326 143.126C135.326 143.911 135.639 144.665 136.194 145.22C136.75 145.776 137.503 146.088 138.289 146.088C139.074 146.088 139.828 145.776 140.383 145.22L150.85 134.748V134.75Z" fill="white"/>
<path d="M181.891 157.979L176.688 163.184L177.702 164.198L182.905 158.994L181.891 157.979Z" fill="#9DAFB6"/>
<path d="M182.902 158.995L177.699 164.199L181.066 167.567L186.269 162.362L182.902 158.995Z" fill="#B9D0D5"/>
<path d="M216.5 191.764L210.465 197.8C210.262 198.004 209.931 198.004 209.727 197.8L180.403 168.47C180.199 168.266 180.199 167.935 180.403 167.732L186.437 161.696C186.641 161.492 186.972 161.492 187.176 161.696L216.5 191.026C216.704 191.229 216.704 191.56 216.5 191.764Z" fill="#3D3D3D"/>
<path d="M158.702 92.3133C155.715 91.5663 152.591 91.1758 149.375 91.1758C128.139 91.1758 110.918 108.4 110.918 129.64C110.918 132.187 111.164 134.674 111.639 137.085C114.058 149.453 122.41 159.691 133.605 164.734C138.417 166.907 143.756 168.113 149.375 168.113C156.411 168.113 163.005 166.228 168.675 162.926C180.133 156.262 187.831 143.859 187.831 129.648C187.823 111.609 175.431 96.4815 158.702 92.3133ZM170.169 150.438C164.609 155.99 157.225 159.055 149.366 159.055C142.508 159.055 135.829 156.644 130.566 152.263C127.698 149.878 125.321 146.966 123.547 143.74C122.113 141.117 121.077 138.282 120.5 135.336C120.135 133.468 119.949 131.55 119.949 129.631C119.949 121.771 123.013 114.385 128.563 108.825C134.123 103.273 141.507 100.208 149.366 100.208C151.785 100.208 154.195 100.505 156.512 101.083C159.424 101.804 162.208 102.993 164.762 104.563C167.682 106.363 170.296 108.672 172.443 111.38C176.594 116.618 178.784 122.925 178.784 129.623C178.784 137.492 175.72 144.886 170.169 150.438Z" fill="#C0D7DE"/>
<path d="M171.281 109.852C166.044 105.124 159.11 102.238 151.497 102.238C135.192 102.238 121.977 115.455 121.977 131.763C121.977 139.377 124.855 146.313 129.591 151.551C123.615 146.152 119.855 138.333 119.855 129.64C119.855 113.333 133.07 100.115 149.375 100.115C158.066 100.107 165.874 103.867 171.281 109.852Z" fill="#648BD8"/>
<path d="M168.668 162.916V169.427C168.668 169.427 159.484 173.086 149.622 171.21C141.873 169.733 135.83 166.184 133.598 164.724C138.41 166.897 143.749 168.103 149.367 168.103C156.403 168.103 162.998 166.21 168.668 162.916Z" fill="#E4E4E5"/>
</svg>
